<mxfile host="Electron" modified="2023-11-28T15:05:47.088Z" agent="Mozilla/5.0 (X11; Linux x86_64) AppleWebKit/537.36 (KHTML, like Gecko) draw.io/22.1.2 Chrome/114.0.5735.289 Electron/25.9.4 Safari/537.36" etag="XGcy5C4J_mAUqM5u4kJv" version="22.1.2" type="device">
  <diagram name="Page-1" id="H2bCj6ZzuXjTWNGWiPMM">
    <mxGraphModel dx="1434" dy="870" grid="1" gridSize="10" guides="1" tooltips="1" connect="1" arrows="1" fold="1" page="1" pageScale="1" pageWidth="850" pageHeight="1100" math="0" shadow="0">
      <root>
        <mxCell id="0" />
        <mxCell id="1" parent="0" />
        <mxCell id="zZWFQwzK3qCWmV7pPC7G-1" value="Translate Service" style="rounded=0;whiteSpace=wrap;html=1;" vertex="1" parent="1">
          <mxGeometry x="150" y="450" width="360" height="60" as="geometry" />
        </mxCell>
        <mxCell id="zZWFQwzK3qCWmV7pPC7G-3" value="Text" style="rounded=0;whiteSpace=wrap;html=1;" vertex="1" parent="1">
          <mxGeometry x="220" y="250" width="120" height="40" as="geometry" />
        </mxCell>
        <mxCell id="zZWFQwzK3qCWmV7pPC7G-4" value="Audio" style="rounded=0;whiteSpace=wrap;html=1;" vertex="1" parent="1">
          <mxGeometry x="580" y="240" width="120" height="40" as="geometry" />
        </mxCell>
        <mxCell id="zZWFQwzK3qCWmV7pPC7G-5" value="GPT" style="rounded=0;whiteSpace=wrap;html=1;" vertex="1" parent="1">
          <mxGeometry x="150" y="510" width="120" height="50" as="geometry" />
        </mxCell>
        <mxCell id="zZWFQwzK3qCWmV7pPC7G-6" value="caching" style="rounded=0;whiteSpace=wrap;html=1;" vertex="1" parent="1">
          <mxGeometry x="270" y="510" width="120" height="50" as="geometry" />
        </mxCell>
        <mxCell id="zZWFQwzK3qCWmV7pPC7G-10" value="Python, KrisCloud" style="swimlane;whiteSpace=wrap;html=1;" vertex="1" parent="1">
          <mxGeometry x="130" y="410" width="400" height="170" as="geometry" />
        </mxCell>
        <mxCell id="zZWFQwzK3qCWmV7pPC7G-11" value="Config" style="rounded=0;whiteSpace=wrap;html=1;" vertex="1" parent="zZWFQwzK3qCWmV7pPC7G-10">
          <mxGeometry x="260" y="100" width="120" height="50" as="geometry" />
        </mxCell>
      </root>
    </mxGraphModel>
  </diagram>
</mxfile>
